Disc Title:     Smurfs: The Lost Village – Blu-ray™
Disc Label:     Smurfs.The.Lost.Village.2017.MULTi.COMPLETE.BLURAY-BD4U
Disc Size:      37,648,956,385 bytes
Protection:     AACS
Extras:         BD-Java
BDInfo:         0.7.5.5

Notes:          

BDINFO HOME:
  Cinema Squid (old)
    http://www.cinemasquid.com/blu-ray/tools/bdinfo
  UniqProject GitHub (new)
   https://github.com/UniqProject/BDInfo

INCLUDES FORUMS REPORT FOR:
  AVS Forum Blu-ray Audio and Video Specifications Thread
    http://www.avsforum.com/avs-vb/showthread.php?t=1155731


********************
PLAYLIST: 00371.MPLS
********************

<--- BEGIN FORUMS PASTE --->
[code]
                                                                                                                Total   Video                                             
Title                                                           Codec   Length  Movie Size      Disc Size       Bitrate Bitrate Main Audio Track                          Secondary Audio Track
-----                                                           ------  ------- --------------  --------------  ------- ------- ------------------                        ---------------------
00371.MPLS                                                      AVC     1:29:46 24,259,682,304  37,648,956,385  36.03   25.83   DTS-HD Master 5.1 2353Kbps (48kHz/16-bit) 
[/code]

[code]

DISC INFO:

Disc Title:     Smurfs: The Lost Village – Blu-ray™
Disc Label:     Smurfs.The.Lost.Village.2017.MULTi.COMPLETE.BLURAY-BD4U
Disc Size:      37,648,956,385 bytes
Protection:     AACS
Extras:         BD-Java
BDInfo:         0.7.5.5

PLAYLIST REPORT:

Name:                   00371.MPLS
Length:                 1:29:46.380 (h:m:s.ms)
Size:                   24,259,682,304 bytes
Total Bitrate:          36.03 Mbps

Angle 1 Length:         0:08:41.270 (h:m:s.ms) / 1:29:46.380 (h:m:s.ms)
Angle 1 Size:           2,339,229,696 bytes / 24,259,590,144 bytes
Angle 1 Total Bitrate:  35.90 Mbps / 36.03 Mbps

All Angles Length:      1:38:27.651 (h:m:s.ms)
All Angles Size:        26,598,912,000 bytes
All Angles Bitrate:     36.02 Mbps

VIDEO:

Codec                   Bitrate             Description     
-----                   -------             -----------     
MPEG-4 AVC Video        25829 kbps          1080p / 23.976 fps / 16:9 / High Profile 4.1
MPEG-4 AVC Video (1)    2499 (25823) kbps   1080p / 23.976 fps / 16:9 / High Profile 4.1

AUDIO:

Codec                           Language        Bitrate         Description     
-----                           --------        -------         -----------     
DTS-HD Master Audio             English         2353 kbps       5.1 / 48 kHz /  2353 kbps / 16-bit (DTS Core: 5.1 / 48 kHz /  1509 kbps / 16-bit)
Dolby Digital Audio             Danish          640 kbps        5.1 / 48 kHz /   640 kbps / DN -31dB
Dolby Digital Audio             Finnish         640 kbps        5.1 / 48 kHz /   640 kbps / DN -31dB
DTS-HD Master Audio             German          2395 kbps       5.1 / 48 kHz /  2395 kbps / 16-bit (DTS Core: 5.1 / 48 kHz /  1509 kbps / 16-bit)
Dolby Digital Audio             Norwegian       640 kbps        5.1 / 48 kHz /   640 kbps / DN -31dB
Dolby Digital Audio             Swedish         640 kbps        5.1 / 48 kHz /   640 kbps / DN -31dB
Dolby Digital Audio             English         192 kbps        2.0 / 48 kHz /   192 kbps / DN -31dB / Dolby Surround

SUBTITLES:

Codec                           Language        Bitrate         Description     
-----                           --------        -------         -----------     
Presentation Graphics           English         40.225 kbps                     
Presentation Graphics           Danish          38.413 kbps                     
Presentation Graphics           Finnish         38.394 kbps                     
Presentation Graphics           German          42.933 kbps                     
Presentation Graphics           Norwegian       37.934 kbps                     
Presentation Graphics           Swedish         36.768 kbps                     
Presentation Graphics           Turkish         41.655 kbps                     
Presentation Graphics           English         70.581 kbps                     
Presentation Graphics           German          69.677 kbps                     

FILES:

Name            Time In         Length          Size            Total Bitrate   
----            -------         ------          ----            -------------   
00371.M2TS      0:00:00.000     0:00:01.668     5,160,960       24,748          
00372.M2TS (1)  0:00:00.000     0:00:01.668     5,160,960       24,748          
00334.M2TS      0:00:01.668     0:55:40.295     15,027,763,200  35,991          
00335.M2TS      0:55:41.963     0:00:30.864     140,156,928     36,329          
00368.M2TS (1)  0:55:41.963     0:00:30.864     140,156,928     36,329          
00336.M2TS      0:56:12.827     0:25:24.814     6,892,597,248   36,162          
00337.M2TS      1:21:37.642     0:08:08.738     2,194,003,968   35,913          
00369.M2TS (1)  1:21:37.642     0:08:08.738     2,193,911,808   35,911          

CHAPTERS:

Number          Time In         Length          Avg Video Rate  Max 1-Sec Rate  Max 1-Sec Time  Max 5-Sec Rate  Max 5-Sec Time  Max 10Sec Rate  Max 10Sec Time  Avg Frame Size  Max Frame Size  Max Frame Time  
------          -------         ------          --------------  --------------  --------------  --------------  --------------  --------------  --------------  --------------  --------------  --------------  
1               0:00:00.000     0:08:48.444     25,250 kbps     40,211 kbps     00:03:13.568    29,125 kbps     00:04:38.569    27,656 kbps     00:04:34.315    131,634 bytes   742,998 bytes   00:00:29.529    
2               0:08:48.444     0:02:14.968     25,311 kbps     36,730 kbps     00:10:27.293    28,263 kbps     00:10:13.070    27,027 kbps     00:10:46.937    131,958 bytes   647,027 bytes   00:11:01.952    
3               0:11:03.412     0:03:30.335     25,875 kbps     39,216 kbps     00:11:40.282    31,214 kbps     00:11:17.468    28,525 kbps     00:11:03.412    134,901 bytes   664,644 bytes   00:13:10.039    
4               0:14:33.747     0:06:47.323     25,576 kbps     36,952 kbps     00:18:59.054    29,313 kbps     00:19:36.508    28,317 kbps     00:18:11.965    133,341 bytes   743,238 bytes   00:19:35.841    
5               0:21:21.071     0:06:04.072     25,971 kbps     40,567 kbps     00:25:01.333    29,958 kbps     00:26:22.122    28,955 kbps     00:26:16.783    135,402 bytes   691,166 bytes   00:24:29.968    
6               0:27:25.143     0:03:08.396     26,489 kbps     37,840 kbps     00:29:33.938    30,380 kbps     00:29:33.146    29,254 kbps     00:29:50.371    138,099 bytes   736,311 bytes   00:29:19.424    
7               0:30:33.540     0:06:15.541     25,585 kbps     37,470 kbps     00:33:33.511    30,457 kbps     00:34:46.584    29,196 kbps     00:34:28.733    133,389 bytes   766,268 bytes   00:34:58.513    
8               0:36:49.081     0:05:52.268     25,823 kbps     44,877 kbps     00:40:06.904    30,720 kbps     00:41:56.764    28,499 kbps     00:41:55.846    134,629 bytes   676,202 bytes   00:41:05.296    
9               0:42:41.350     0:03:17.322     27,404 kbps     41,072 kbps     00:43:35.904    31,438 kbps     00:45:20.175    30,519 kbps     00:43:43.412    142,870 bytes   489,718 bytes   00:45:37.609    
10              0:45:58.672     0:04:37.277     25,841 kbps     33,981 kbps     00:47:27.636    28,301 kbps     00:47:26.301    27,739 kbps     00:50:24.688    134,722 bytes   605,499 bytes   00:49:11.114    
11              0:50:35.949     0:06:27.637     26,118 kbps     44,157 kbps     00:55:53.892    30,630 kbps     00:55:50.388    29,228 kbps     00:55:51.473    136,166 bytes   719,370 bytes   00:51:19.618    
12              0:57:03.586     0:05:31.706     26,017 kbps     40,550 kbps     00:59:49.127    28,986 kbps     01:02:19.694    27,992 kbps     00:59:49.210    135,641 bytes   711,419 bytes   01:02:02.468    
13              1:02:35.293     0:06:32.475     25,466 kbps     42,585 kbps     01:04:46.674    30,556 kbps     01:05:35.264    28,125 kbps     01:05:30.176    132,770 bytes   635,382 bytes   01:02:39.297    
14              1:09:07.768     0:05:31.706     25,812 kbps     42,872 kbps     01:10:35.314    29,373 kbps     01:14:11.697    28,774 kbps     01:14:13.240    134,575 bytes   632,412 bytes   01:09:49.768    
15              1:14:39.474     0:04:55.003     25,537 kbps     36,099 kbps     01:19:29.014    30,589 kbps     01:18:04.304    28,972 kbps     01:18:04.304    133,136 bytes   765,123 bytes   01:17:54.127    
16              1:19:34.478     0:10:11.902     26,043 kbps     38,053 kbps     01:21:37.434    30,698 kbps     01:21:26.798    29,536 kbps     01:25:18.446    135,785 bytes   728,191 bytes   01:28:21.087    

STREAM DIAGNOSTICS:

File            PID             Type            Codec           Language                Seconds                 Bitrate                 Bytes           Packets         
----            ---             ----            -----           --------                --------------          --------------          -------------   -----           
00371.M2TS      4113 (0x1011)   0x1B            AVC                                     1.585                   17,224                  3,412,244       18,569          
00371.M2TS      4352 (0x1100)   0x86            DTS-HD MA       eng (English)           1.585                   1,648                   326,560         2,041           
00371.M2TS      4353 (0x1101)   0x81            AC3             dan (Danish)            1.585                   685                     135,680         795             
00371.M2TS      4354 (0x1102)   0x81            AC3             fin (Finnish)           1.585                   685                     135,680         795             
00371.M2TS      4355 (0x1103)   0x86            DTS-HD MA       deu (German)            1.585                   2,183                   432,564         2,659           
00371.M2TS      4356 (0x1104)   0x81            AC3             nor (Norwegian)         1.585                   685                     135,680         795             
00371.M2TS      4357 (0x1105)   0x81            AC3             swe (Swedish)           1.585                   685                     135,680         795             
00371.M2TS      4358 (0x1106)   0x81            AC3             eng (English)           1.585                   205                     40,704          265             
00371.M2TS      4608 (0x1200)   0x90            PGS             eng (English)           1.585                   0                       70              7               
00371.M2TS      4609 (0x1201)   0x90            PGS             dan (Danish)            1.585                   0                       70              7               
00371.M2TS      4610 (0x1202)   0x90            PGS             fin (Finnish)           1.585                   0                       70              7               
00371.M2TS      4611 (0x1203)   0x90            PGS             deu (German)            1.585                   0                       70              7               
00371.M2TS      4612 (0x1204)   0x90            PGS             nor (Norwegian)         1.585                   0                       70              7               
00371.M2TS      4613 (0x1205)   0x90            PGS             swe (Swedish)           1.585                   0                       70              7               
00371.M2TS      4614 (0x1206)   0x90            PGS             tur (Turkish)           1.585                   0                       70              7               
00371.M2TS      4615 (0x1207)   0x90            PGS             eng (English)           1.585                   0                       70              7               
00371.M2TS      4616 (0x1208)   0x90            PGS             deu (German)            1.585                   0                       70              7               
00372.M2TS (1)  4113 (0x1011)   0x1B            AVC                                     1.585                   17,224                  3,412,244       18,569          
00372.M2TS (1)  4352 (0x1100)   0x86            DTS-HD MA       eng (English)           1.585                   1,648                   326,560         2,041           
00372.M2TS (1)  4353 (0x1101)   0x81            AC3             dan (Danish)            1.585                   685                     135,680         795             
00372.M2TS (1)  4354 (0x1102)   0x81            AC3             fin (Finnish)           1.585                   685                     135,680         795             
00372.M2TS (1)  4355 (0x1103)   0x86            DTS-HD MA       deu (German)            1.585                   2,183                   432,564         2,659           
00372.M2TS (1)  4356 (0x1104)   0x81            AC3             nor (Norwegian)         1.585                   685                     135,680         795             
00372.M2TS (1)  4357 (0x1105)   0x81            AC3             swe (Swedish)           1.585                   685                     135,680         795             
00372.M2TS (1)  4358 (0x1106)   0x81            AC3             eng (English)           1.585                   205                     40,704          265             
00372.M2TS (1)  4608 (0x1200)   0x90            PGS             eng (English)           1.585                   0                       70              7               
00372.M2TS (1)  4609 (0x1201)   0x90            PGS             dan (Danish)            1.585                   0                       70              7               
00372.M2TS (1)  4610 (0x1202)   0x90            PGS             fin (Finnish)           1.585                   0                       70              7               
00372.M2TS (1)  4611 (0x1203)   0x90            PGS             deu (German)            1.585                   0                       70              7               
00372.M2TS (1)  4612 (0x1204)   0x90            PGS             nor (Norwegian)         1.585                   0                       70              7               
00372.M2TS (1)  4613 (0x1205)   0x90            PGS             swe (Swedish)           1.585                   0                       70              7               
00372.M2TS (1)  4614 (0x1206)   0x90            PGS             tur (Turkish)           1.585                   0                       70              7               
00372.M2TS (1)  4615 (0x1207)   0x90            PGS             eng (English)           1.585                   0                       70              7               
00372.M2TS (1)  4616 (0x1208)   0x90            PGS             deu (German)            1.585                   0                       70              7               
00334.M2TS      4113 (0x1011)   0x1B            AVC                                     3340.212                25,834                  10,786,562,356  58,669,928      
00334.M2TS      4352 (0x1100)   0x86            DTS-HD MA       eng (English)           3340.212                2,302                   960,966,780     5,743,498       
00334.M2TS      4353 (0x1101)   0x81            AC3             dan (Danish)            3340.212                640                     267,228,160     1,565,790       
00334.M2TS      4354 (0x1102)   0x81            AC3             fin (Finnish)           3340.212                640                     267,228,160     1,565,790       
00334.M2TS      4355 (0x1103)   0x86            DTS-HD MA       deu (German)            3340.212                2,360                   985,339,544     5,871,072       
00334.M2TS      4356 (0x1104)   0x81            AC3             nor (Norwegian)         3340.212                640                     267,228,160     1,565,790       
00334.M2TS      4357 (0x1105)   0x81            AC3             swe (Swedish)           3340.212                640                     267,228,160     1,565,790       
00334.M2TS      4358 (0x1106)   0x81            AC3             eng (English)           3340.212                192                     80,168,448      521,930         
00334.M2TS      4608 (0x1200)   0x90            PGS             eng (English)           3340.212                46                      19,180,724      109,161         
00334.M2TS      4609 (0x1201)   0x90            PGS             dan (Danish)            3340.212                43                      18,116,370      103,348         
00334.M2TS      4610 (0x1202)   0x90            PGS             fin (Finnish)           3340.212                43                      18,145,910      103,514         
00334.M2TS      4611 (0x1203)   0x90            PGS             deu (German)            3340.212                48                      20,186,685      114,607         
00334.M2TS      4612 (0x1204)   0x90            PGS             nor (Norwegian)         3340.212                43                      18,040,176      102,998         
00334.M2TS      4613 (0x1205)   0x90            PGS             swe (Swedish)           3340.212                42                      17,383,373      98,596          
00334.M2TS      4614 (0x1206)   0x90            PGS             tur (Turkish)           3340.212                47                      19,751,890      112,224         
00334.M2TS      4615 (0x1207)   0x90            PGS             eng (English)           3340.212                73                      30,668,527      173,439         
00334.M2TS      4616 (0x1208)   0x90            PGS             deu (German)            3340.212                72                      30,064,882      170,210         
00335.M2TS      4113 (0x1011)   0x1B            AVC                                     30.781                  25,982                  99,969,280      543,738         
00335.M2TS      4352 (0x1100)   0x86            DTS-HD MA       eng (English)           30.781                  2,649                   10,191,652      59,889          
00335.M2TS      4353 (0x1101)   0x81            AC3             dan (Danish)            30.781                  642                     2,470,400       14,475          
00335.M2TS      4354 (0x1102)   0x81            AC3             fin (Finnish)           30.781                  642                     2,470,400       14,475          
00335.M2TS      4355 (0x1103)   0x86            DTS-HD MA       deu (German)            30.781                  2,570                   9,888,632       58,701          
00335.M2TS      4356 (0x1104)   0x81            AC3             nor (Norwegian)         30.781                  642                     2,470,400       14,475          
00335.M2TS      4357 (0x1105)   0x81            AC3             swe (Swedish)           30.781                  642                     2,470,400       14,475          
00335.M2TS      4358 (0x1106)   0x81            AC3             eng (English)           30.781                  193                     741,120         4,825           
00335.M2TS      4608 (0x1200)   0x90            PGS             eng (English)           30.781                  2                       8,407           52              
00335.M2TS      4609 (0x1201)   0x90            PGS             dan (Danish)            30.781                  3                       11,855          78              
00335.M2TS      4610 (0x1202)   0x90            PGS             fin (Finnish)           30.781                  4                       16,221          101             
00335.M2TS      4611 (0x1203)   0x90            PGS             deu (German)            30.781                  4                       14,346          90              
00335.M2TS      4612 (0x1204)   0x90            PGS             nor (Norwegian)         30.781                  4                       15,788          99              
00335.M2TS      4613 (0x1205)   0x90            PGS             swe (Swedish)           30.781                  3                       12,702          82              
00335.M2TS      4614 (0x1206)   0x90            PGS             tur (Turkish)           30.781                  3                       12,071          78              
00335.M2TS      4615 (0x1207)   0x90            PGS             eng (English)           30.781                  79                      304,056         1,722           
00335.M2TS      4616 (0x1208)   0x90            PGS             deu (German)            30.781                  72                      277,132         1,576           
00368.M2TS (1)  4113 (0x1011)   0x1B            AVC                                     30.781                  25,981                  99,965,793      543,731         
00368.M2TS (1)  4352 (0x1100)   0x86            DTS-HD MA       eng (English)           30.781                  2,649                   10,191,652      59,889          
00368.M2TS (1)  4353 (0x1101)   0x81            AC3             dan (Danish)            30.781                  642                     2,470,400       14,475          
00368.M2TS (1)  4354 (0x1102)   0x81            AC3             fin (Finnish)           30.781                  642                     2,470,400       14,475          
00368.M2TS (1)  4355 (0x1103)   0x86            DTS-HD MA       deu (German)            30.781                  2,570                   9,888,632       58,701          
00368.M2TS (1)  4356 (0x1104)   0x81            AC3             nor (Norwegian)         30.781                  642                     2,470,400       14,475          
00368.M2TS (1)  4357 (0x1105)   0x81            AC3             swe (Swedish)           30.781                  642                     2,470,400       14,475          
00368.M2TS (1)  4358 (0x1106)   0x81            AC3             eng (English)           30.781                  193                     741,120         4,825           
00368.M2TS (1)  4608 (0x1200)   0x90            PGS             eng (English)           30.781                  2                       8,407           52              
00368.M2TS (1)  4609 (0x1201)   0x90            PGS             dan (Danish)            30.781                  3                       11,855          78              
00368.M2TS (1)  4610 (0x1202)   0x90            PGS             fin (Finnish)           30.781                  4                       16,221          101             
00368.M2TS (1)  4611 (0x1203)   0x90            PGS             deu (German)            30.781                  4                       14,346          90              
00368.M2TS (1)  4612 (0x1204)   0x90            PGS             nor (Norwegian)         30.781                  4                       15,788          99              
00368.M2TS (1)  4613 (0x1205)   0x90            PGS             swe (Swedish)           30.781                  3                       12,702          82              
00368.M2TS (1)  4614 (0x1206)   0x90            PGS             tur (Turkish)           30.781                  3                       12,071          78              
00368.M2TS (1)  4615 (0x1207)   0x90            PGS             eng (English)           30.781                  79                      304,056         1,722           
00368.M2TS (1)  4616 (0x1208)   0x90            PGS             deu (German)            30.781                  72                      277,132         1,576           
00336.M2TS      4113 (0x1011)   0x1B            AVC                                     1524.732                25,820                  4,921,130,989   26,766,825      
00336.M2TS      4352 (0x1100)   0x86            DTS-HD MA       eng (English)           1524.732                2,443                   465,705,000     2,767,846       
00336.M2TS      4353 (0x1101)   0x81            AC3             dan (Danish)            1524.732                640                     121,989,120     714,780         
00336.M2TS      4354 (0x1102)   0x81            AC3             fin (Finnish)           1524.732                640                     121,989,120     714,780         
00336.M2TS      4355 (0x1103)   0x86            DTS-HD MA       deu (German)            1524.732                2,458                   468,437,248     2,784,862       
00336.M2TS      4356 (0x1104)   0x81            AC3             nor (Norwegian)         1524.732                640                     121,989,120     714,780         
00336.M2TS      4357 (0x1105)   0x81            AC3             swe (Swedish)           1524.732                640                     121,989,120     714,780         
00336.M2TS      4358 (0x1106)   0x81            AC3             eng (English)           1524.732                192                     36,596,736      238,260         
00336.M2TS      4608 (0x1200)   0x90            PGS             eng (English)           1524.732                36                      6,932,081       39,610          
00336.M2TS      4609 (0x1201)   0x90            PGS             dan (Danish)            1524.732                35                      6,698,406       38,338          
00336.M2TS      4610 (0x1202)   0x90            PGS             fin (Finnish)           1524.732                35                      6,707,637       38,391          
00336.M2TS      4611 (0x1203)   0x90            PGS             deu (German)            1524.732                40                      7,568,311       43,078          
00336.M2TS      4612 (0x1204)   0x90            PGS             nor (Norwegian)         1524.732                34                      6,526,534       37,334          
00336.M2TS      4613 (0x1205)   0x90            PGS             swe (Swedish)           1524.732                34                      6,421,029       36,505          
00336.M2TS      4614 (0x1206)   0x90            PGS             tur (Turkish)           1524.732                37                      7,141,341       40,743          
00336.M2TS      4615 (0x1207)   0x90            PGS             eng (English)           1524.732                73                      13,874,042      78,666          
00336.M2TS      4616 (0x1208)   0x90            PGS             deu (German)            1524.732                72                      13,809,324      78,282          
00337.M2TS      4113 (0x1011)   0x1B            AVC                                     488.655                 25,856                  1,579,307,195   8,590,076       
00337.M2TS      4352 (0x1100)   0x86            DTS-HD MA       eng (English)           488.655                 2,403                   146,760,132     873,617         
00337.M2TS      4353 (0x1101)   0x81            AC3             dan (Danish)            488.655                 640                     39,101,440      229,110         
00337.M2TS      4354 (0x1102)   0x81            AC3             fin (Finnish)           488.655                 640                     39,101,440      229,110         
00337.M2TS      4355 (0x1103)   0x86            DTS-HD MA       deu (German)            488.655                 2,431                   148,519,448     883,283         
00337.M2TS      4356 (0x1104)   0x81            AC3             nor (Norwegian)         488.655                 640                     39,101,440      229,110         
00337.M2TS      4357 (0x1105)   0x81            AC3             swe (Swedish)           488.655                 640                     39,101,440      229,110         
00337.M2TS      4358 (0x1106)   0x81            AC3             eng (English)           488.655                 192                     11,730,432      76,370          
00337.M2TS      4608 (0x1200)   0x90            PGS             eng (English)           488.655                 16                      962,420         5,397           
00337.M2TS      4609 (0x1201)   0x90            PGS             dan (Danish)            488.655                 17                      1,036,437       5,818           
00337.M2TS      4610 (0x1202)   0x90            PGS             fin (Finnish)           488.655                 16                      980,634         5,513           
00337.M2TS      4611 (0x1203)   0x90            PGS             deu (German)            488.655                 19                      1,137,294       6,376           
00337.M2TS      4612 (0x1204)   0x90            PGS             nor (Norwegian)         488.655                 16                      958,151         5,375           
00337.M2TS      4613 (0x1205)   0x90            PGS             swe (Swedish)           488.655                 15                      938,823         5,250           
00337.M2TS      4614 (0x1206)   0x90            PGS             tur (Turkish)           488.655                 19                      1,140,937       6,386           
00337.M2TS      4615 (0x1207)   0x90            PGS             eng (English)           488.655                 44                      2,675,605       15,165          
00337.M2TS      4616 (0x1208)   0x90            PGS             deu (German)            488.655                 45                      2,762,174       15,651          
00369.M2TS (1)  4113 (0x1011)   0x1B            AVC                                     488.655                 25,854                  1,579,216,148   8,589,598       
00369.M2TS (1)  4352 (0x1100)   0x86            DTS-HD MA       eng (English)           488.655                 2,403                   146,760,132     873,617         
00369.M2TS (1)  4353 (0x1101)   0x81            AC3             dan (Danish)            488.655                 640                     39,101,440      229,110         
00369.M2TS (1)  4354 (0x1102)   0x81            AC3             fin (Finnish)           488.655                 640                     39,101,440      229,110         
00369.M2TS (1)  4355 (0x1103)   0x86            DTS-HD MA       deu (German)            488.655                 2,431                   148,519,448     883,283         
00369.M2TS (1)  4356 (0x1104)   0x81            AC3             nor (Norwegian)         488.655                 640                     39,101,440      229,110         
00369.M2TS (1)  4357 (0x1105)   0x81            AC3             swe (Swedish)           488.655                 640                     39,101,440      229,110         
00369.M2TS (1)  4358 (0x1106)   0x81            AC3             eng (English)           488.655                 192                     11,730,432      76,370          
00369.M2TS (1)  4608 (0x1200)   0x90            PGS             eng (English)           488.655                 16                      962,420         5,397           
00369.M2TS (1)  4609 (0x1201)   0x90            PGS             dan (Danish)            488.655                 17                      1,036,437       5,818           
00369.M2TS (1)  4610 (0x1202)   0x90            PGS             fin (Finnish)           488.655                 16                      980,634         5,513           
00369.M2TS (1)  4611 (0x1203)   0x90            PGS             deu (German)            488.655                 19                      1,137,294       6,376           
00369.M2TS (1)  4612 (0x1204)   0x90            PGS             nor (Norwegian)         488.655                 16                      958,151         5,375           
00369.M2TS (1)  4613 (0x1205)   0x90            PGS             swe (Swedish)           488.655                 15                      938,823         5,250           
00369.M2TS (1)  4614 (0x1206)   0x90            PGS             tur (Turkish)           488.655                 19                      1,140,937       6,386           
00369.M2TS (1)  4615 (0x1207)   0x90            PGS             eng (English)           488.655                 44                      2,675,605       15,165          
00369.M2TS (1)  4616 (0x1208)   0x90            PGS             deu (German)            488.655                 45                      2,762,174       15,651          

[/code]
<---- END FORUMS PASTE ---->

QUICK SUMMARY:

Disc Title: Smurfs: The Lost Village – Blu-ray™
Disc Label: Smurfs.The.Lost.Village.2017.MULTi.COMPLETE.BLURAY-BD4U
Disc Size: 37,648,956,385 bytes
Protection: AACS
Playlist: 00371.MPLS
Size: 24,259,682,304 bytes
Length: 1:29:46.380
Total Bitrate: 36.03 Mbps
Video: MPEG-4 AVC Video / 25829 kbps / 1080p / 23.976 fps / 16:9 / High Profile 4.1
Video: MPEG-4 AVC Video (1) / 2499 (25823) kbps / 1080p / 23.976 fps / 16:9 / High Profile 4.1
Audio: English / DTS-HD Master Audio / 5.1 / 48 kHz /  2353 kbps / 16-bit (DTS Core: 5.1 / 48 kHz /  1509 kbps / 16-bit)
Audio: Danish / Dolby Digital Audio / 5.1 / 48 kHz /   640 kbps / DN -31dB
Audio: Finnish / Dolby Digital Audio / 5.1 / 48 kHz /   640 kbps / DN -31dB
Audio: German / DTS-HD Master Audio / 5.1 / 48 kHz /  2395 kbps / 16-bit (DTS Core: 5.1 / 48 kHz /  1509 kbps / 16-bit)
Audio: Norwegian / Dolby Digital Audio / 5.1 / 48 kHz /   640 kbps / DN -31dB
Audio: Swedish / Dolby Digital Audio / 5.1 / 48 kHz /   640 kbps / DN -31dB
Audio: English / Dolby Digital Audio / 2.0 / 48 kHz /   192 kbps / DN -31dB / Dolby Surround
Subtitle: English / 40.225 kbps
Subtitle: Danish / 38.413 kbps
Subtitle: Finnish / 38.394 kbps
Subtitle: German / 42.933 kbps
Subtitle: Norwegian / 37.934 kbps
Subtitle: Swedish / 36.768 kbps
Subtitle: Turkish / 41.655 kbps
Subtitle: English / 70.581 kbps
Subtitle: German / 69.677 kbps


********************
PLAYLIST: 00372.MPLS
********************

<--- BEGIN FORUMS PASTE --->
[code]
                                                                                                                Total   Video                                             
Title                                                           Codec   Length  Movie Size      Disc Size       Bitrate Bitrate Main Audio Track                          Secondary Audio Track
-----                                                           ------  ------- --------------  --------------  ------- ------- ------------------                        ---------------------
00372.MPLS                                                      AVC     1:29:46 24,259,682,304  37,648,956,385  36.03   25.83   DTS-HD Master 5.1 2353Kbps (48kHz/16-bit) 
[/code]

[code]

DISC INFO:

Disc Title:     Smurfs: The Lost Village – Blu-ray™
Disc Label:     Smurfs.The.Lost.Village.2017.MULTi.COMPLETE.BLURAY-BD4U
Disc Size:      37,648,956,385 bytes
Protection:     AACS
Extras:         BD-Java
BDInfo:         0.7.5.5

PLAYLIST REPORT:

Name:                   00372.MPLS
Length:                 1:29:46.380 (h:m:s.ms)
Size:                   24,259,682,304 bytes
Total Bitrate:          36.03 Mbps

Angle 1 Length:         0:08:41.270 (h:m:s.ms) / 1:29:46.380 (h:m:s.ms)
Angle 1 Size:           2,339,229,696 bytes / 24,259,590,144 bytes
Angle 1 Total Bitrate:  35.90 Mbps / 36.03 Mbps

All Angles Length:      1:38:27.651 (h:m:s.ms)
All Angles Size:        26,598,912,000 bytes
All Angles Bitrate:     36.02 Mbps

VIDEO:

Codec                   Bitrate             Description     
-----                   -------             -----------     
MPEG-4 AVC Video        25829 kbps          1080p / 23.976 fps / 16:9 / High Profile 4.1
MPEG-4 AVC Video (1)    2499 (25823) kbps   1080p / 23.976 fps / 16:9 / High Profile 4.1

AUDIO:

Codec                           Language        Bitrate         Description     
-----                           --------        -------         -----------     
DTS-HD Master Audio             English         2353 kbps       5.1 / 48 kHz /  2353 kbps / 16-bit (DTS Core: 5.1 / 48 kHz /  1509 kbps / 16-bit)
Dolby Digital Audio             Danish          640 kbps        5.1 / 48 kHz /   640 kbps / DN -31dB
Dolby Digital Audio             Finnish         640 kbps        5.1 / 48 kHz /   640 kbps / DN -31dB
DTS-HD Master Audio             German          2395 kbps       5.1 / 48 kHz /  2395 kbps / 16-bit (DTS Core: 5.1 / 48 kHz /  1509 kbps / 16-bit)
Dolby Digital Audio             Norwegian       640 kbps        5.1 / 48 kHz /   640 kbps / DN -31dB
Dolby Digital Audio             Swedish         640 kbps        5.1 / 48 kHz /   640 kbps / DN -31dB
Dolby Digital Audio             English         192 kbps        2.0 / 48 kHz /   192 kbps / DN -31dB / Dolby Surround

SUBTITLES:

Codec                           Language        Bitrate         Description     
-----                           --------        -------         -----------     
Presentation Graphics           English         40.225 kbps                     
Presentation Graphics           Danish          38.413 kbps                     
Presentation Graphics           Finnish         38.394 kbps                     
Presentation Graphics           German          42.933 kbps                     
Presentation Graphics           Norwegian       37.934 kbps                     
Presentation Graphics           Swedish         36.768 kbps                     
Presentation Graphics           Turkish         41.655 kbps                     
Presentation Graphics           English         70.581 kbps                     
Presentation Graphics           German          69.677 kbps                     

FILES:

Name            Time In         Length          Size            Total Bitrate   
----            -------         ------          ----            -------------   
00371.M2TS      0:00:00.000     0:00:01.668     5,160,960       24,748          
00372.M2TS (1)  0:00:00.000     0:00:01.668     5,160,960       24,748          
00334.M2TS      0:00:01.668     0:55:40.295     15,027,763,200  35,991          
00335.M2TS      0:55:41.963     0:00:30.864     140,156,928     36,329          
00368.M2TS (1)  0:55:41.963     0:00:30.864     140,156,928     36,329          
00336.M2TS      0:56:12.827     0:25:24.814     6,892,597,248   36,162          
00337.M2TS      1:21:37.642     0:08:08.738     2,194,003,968   35,913          
00369.M2TS (1)  1:21:37.642     0:08:08.738     2,193,911,808   35,911          

CHAPTERS:

Number          Time In         Length          Avg Video Rate  Max 1-Sec Rate  Max 1-Sec Time  Max 5-Sec Rate  Max 5-Sec Time  Max 10Sec Rate  Max 10Sec Time  Avg Frame Size  Max Frame Size  Max Frame Time  
------          -------         ------          --------------  --------------  --------------  --------------  --------------  --------------  --------------  --------------  --------------  --------------  
1               0:00:00.000     0:08:48.444     25,250 kbps     40,211 kbps     00:03:13.568    29,125 kbps     00:04:38.569    27,656 kbps     00:04:34.315    131,634 bytes   742,998 bytes   00:00:29.529    
2               0:08:48.444     0:02:14.968     25,311 kbps     36,730 kbps     00:10:27.293    28,263 kbps     00:10:13.070    27,027 kbps     00:10:46.937    131,958 bytes   647,027 bytes   00:11:01.952    
3               0:11:03.412     0:03:30.335     25,875 kbps     39,216 kbps     00:11:40.282    31,214 kbps     00:11:17.468    28,525 kbps     00:11:03.412    134,901 bytes   664,644 bytes   00:13:10.039    
4               0:14:33.747     0:06:47.323     25,576 kbps     36,952 kbps     00:18:59.054    29,313 kbps     00:19:36.508    28,317 kbps     00:18:11.965    133,341 bytes   743,238 bytes   00:19:35.841    
5               0:21:21.071     0:06:04.072     25,971 kbps     40,567 kbps     00:25:01.333    29,958 kbps     00:26:22.122    28,955 kbps     00:26:16.783    135,402 bytes   691,166 bytes   00:24:29.968    
6               0:27:25.143     0:03:08.396     26,489 kbps     37,840 kbps     00:29:33.938    30,380 kbps     00:29:33.146    29,254 kbps     00:29:50.371    138,099 bytes   736,311 bytes   00:29:19.424    
7               0:30:33.540     0:06:15.541     25,585 kbps     37,470 kbps     00:33:33.511    30,457 kbps     00:34:46.584    29,196 kbps     00:34:28.733    133,389 bytes   766,268 bytes   00:34:58.513    
8               0:36:49.081     0:05:52.268     25,823 kbps     44,877 kbps     00:40:06.904    30,720 kbps     00:41:56.764    28,499 kbps     00:41:55.846    134,629 bytes   676,202 bytes   00:41:05.296    
9               0:42:41.350     0:03:17.322     27,404 kbps     41,072 kbps     00:43:35.904    31,438 kbps     00:45:20.175    30,519 kbps     00:43:43.412    142,870 bytes   489,718 bytes   00:45:37.609    
10              0:45:58.672     0:04:37.277     25,841 kbps     33,981 kbps     00:47:27.636    28,301 kbps     00:47:26.301    27,739 kbps     00:50:24.688    134,722 bytes   605,499 bytes   00:49:11.114    
11              0:50:35.949     0:06:27.637     26,118 kbps     44,157 kbps     00:55:53.892    30,630 kbps     00:55:50.388    29,228 kbps     00:55:51.473    136,166 bytes   719,370 bytes   00:51:19.618    
12              0:57:03.586     0:05:31.706     26,017 kbps     40,550 kbps     00:59:49.127    28,986 kbps     01:02:19.694    27,992 kbps     00:59:49.210    135,641 bytes   711,419 bytes   01:02:02.468    
13              1:02:35.293     0:06:32.475     25,466 kbps     42,585 kbps     01:04:46.674    30,556 kbps     01:05:35.264    28,125 kbps     01:05:30.176    132,770 bytes   635,382 bytes   01:02:39.297    
14              1:09:07.768     0:05:31.706     25,812 kbps     42,872 kbps     01:10:35.314    29,373 kbps     01:14:11.697    28,774 kbps     01:14:13.240    134,575 bytes   632,412 bytes   01:09:49.768    
15              1:14:39.474     0:04:55.003     25,537 kbps     36,099 kbps     01:19:29.014    30,589 kbps     01:18:04.304    28,972 kbps     01:18:04.304    133,136 bytes   765,123 bytes   01:17:54.127    
16              1:19:34.478     0:10:11.902     26,043 kbps     38,053 kbps     01:21:37.434    30,698 kbps     01:21:26.798    29,536 kbps     01:25:18.446    135,785 bytes   728,191 bytes   01:28:21.087    

STREAM DIAGNOSTICS:

File            PID             Type            Codec           Language                Seconds                 Bitrate                 Bytes           Packets         
----            ---             ----            -----           --------                --------------          --------------          -------------   -----           
00371.M2TS      4113 (0x1011)   0x1B            AVC                                     1.585                   17,224                  3,412,244       18,569          
00371.M2TS      4352 (0x1100)   0x86            DTS-HD MA       eng (English)           1.585                   1,648                   326,560         2,041           
00371.M2TS      4353 (0x1101)   0x81            AC3             dan (Danish)            1.585                   685                     135,680         795             
00371.M2TS      4354 (0x1102)   0x81            AC3             fin (Finnish)           1.585                   685                     135,680         795             
00371.M2TS      4355 (0x1103)   0x86            DTS-HD MA       deu (German)            1.585                   2,183                   432,564         2,659           
00371.M2TS      4356 (0x1104)   0x81            AC3             nor (Norwegian)         1.585                   685                     135,680         795             
00371.M2TS      4357 (0x1105)   0x81            AC3             swe (Swedish)           1.585                   685                     135,680         795             
00371.M2TS      4358 (0x1106)   0x81            AC3             eng (English)           1.585                   205                     40,704          265             
00371.M2TS      4608 (0x1200)   0x90            PGS             eng (English)           1.585                   0                       70              7               
00371.M2TS      4609 (0x1201)   0x90            PGS             dan (Danish)            1.585                   0                       70              7               
00371.M2TS      4610 (0x1202)   0x90            PGS             fin (Finnish)           1.585                   0                       70              7               
00371.M2TS      4611 (0x1203)   0x90            PGS             deu (German)            1.585                   0                       70              7               
00371.M2TS      4612 (0x1204)   0x90            PGS             nor (Norwegian)         1.585                   0                       70              7               
00371.M2TS      4613 (0x1205)   0x90            PGS             swe (Swedish)           1.585                   0                       70              7               
00371.M2TS      4614 (0x1206)   0x90            PGS             tur (Turkish)           1.585                   0                       70              7               
00371.M2TS      4615 (0x1207)   0x90            PGS             eng (English)           1.585                   0                       70              7               
00371.M2TS      4616 (0x1208)   0x90            PGS             deu (German)            1.585                   0                       70              7               
00372.M2TS (1)  4113 (0x1011)   0x1B            AVC                                     1.585                   17,224                  3,412,244       18,569          
00372.M2TS (1)  4352 (0x1100)   0x86            DTS-HD MA       eng (English)           1.585                   1,648                   326,560         2,041           
00372.M2TS (1)  4353 (0x1101)   0x81            AC3             dan (Danish)            1.585                   685                     135,680         795             
00372.M2TS (1)  4354 (0x1102)   0x81            AC3             fin (Finnish)           1.585                   685                     135,680         795             
00372.M2TS (1)  4355 (0x1103)   0x86            DTS-HD MA       deu (German)            1.585                   2,183                   432,564         2,659           
00372.M2TS (1)  4356 (0x1104)   0x81            AC3             nor (Norwegian)         1.585                   685                     135,680         795             
00372.M2TS (1)  4357 (0x1105)   0x81            AC3             swe (Swedish)           1.585                   685                     135,680         795             
00372.M2TS (1)  4358 (0x1106)   0x81            AC3             eng (English)           1.585                   205                     40,704          265             
00372.M2TS (1)  4608 (0x1200)   0x90            PGS             eng (English)           1.585                   0                       70              7               
00372.M2TS (1)  4609 (0x1201)   0x90            PGS             dan (Danish)            1.585                   0                       70              7               
00372.M2TS (1)  4610 (0x1202)   0x90            PGS             fin (Finnish)           1.585                   0                       70              7               
00372.M2TS (1)  4611 (0x1203)   0x90            PGS             deu (German)            1.585                   0                       70              7               
00372.M2TS (1)  4612 (0x1204)   0x90            PGS             nor (Norwegian)         1.585                   0                       70              7               
00372.M2TS (1)  4613 (0x1205)   0x90            PGS             swe (Swedish)           1.585                   0                       70              7               
00372.M2TS (1)  4614 (0x1206)   0x90            PGS             tur (Turkish)           1.585                   0                       70              7               
00372.M2TS (1)  4615 (0x1207)   0x90            PGS             eng (English)           1.585                   0                       70              7               
00372.M2TS (1)  4616 (0x1208)   0x90            PGS             deu (German)            1.585                   0                       70              7               
00334.M2TS      4113 (0x1011)   0x1B            AVC                                     3340.212                25,834                  10,786,562,356  58,669,928      
00334.M2TS      4352 (0x1100)   0x86            DTS-HD MA       eng (English)           3340.212                2,302                   960,966,780     5,743,498       
00334.M2TS      4353 (0x1101)   0x81            AC3             dan (Danish)            3340.212                640                     267,228,160     1,565,790       
00334.M2TS      4354 (0x1102)   0x81            AC3             fin (Finnish)           3340.212                640                     267,228,160     1,565,790       
00334.M2TS      4355 (0x1103)   0x86            DTS-HD MA       deu (German)            3340.212                2,360                   985,339,544     5,871,072       
00334.M2TS      4356 (0x1104)   0x81            AC3             nor (Norwegian)         3340.212                640                     267,228,160     1,565,790       
00334.M2TS      4357 (0x1105)   0x81            AC3             swe (Swedish)           3340.212                640                     267,228,160     1,565,790       
00334.M2TS      4358 (0x1106)   0x81            AC3             eng (English)           3340.212                192                     80,168,448      521,930         
00334.M2TS      4608 (0x1200)   0x90            PGS             eng (English)           3340.212                46                      19,180,724      109,161         
00334.M2TS      4609 (0x1201)   0x90            PGS             dan (Danish)            3340.212                43                      18,116,370      103,348         
00334.M2TS      4610 (0x1202)   0x90            PGS             fin (Finnish)           3340.212                43                      18,145,910      103,514         
00334.M2TS      4611 (0x1203)   0x90            PGS             deu (German)            3340.212                48                      20,186,685      114,607         
00334.M2TS      4612 (0x1204)   0x90            PGS             nor (Norwegian)         3340.212                43                      18,040,176      102,998         
00334.M2TS      4613 (0x1205)   0x90            PGS             swe (Swedish)           3340.212                42                      17,383,373      98,596          
00334.M2TS      4614 (0x1206)   0x90            PGS             tur (Turkish)           3340.212                47                      19,751,890      112,224         
00334.M2TS      4615 (0x1207)   0x90            PGS             eng (English)           3340.212                73                      30,668,527      173,439         
00334.M2TS      4616 (0x1208)   0x90            PGS             deu (German)            3340.212                72                      30,064,882      170,210         
00335.M2TS      4113 (0x1011)   0x1B            AVC                                     30.781                  25,982                  99,969,280      543,738         
00335.M2TS      4352 (0x1100)   0x86            DTS-HD MA       eng (English)           30.781                  2,649                   10,191,652      59,889          
00335.M2TS      4353 (0x1101)   0x81            AC3             dan (Danish)            30.781                  642                     2,470,400       14,475          
00335.M2TS      4354 (0x1102)   0x81            AC3             fin (Finnish)           30.781                  642                     2,470,400       14,475          
00335.M2TS      4355 (0x1103)   0x86            DTS-HD MA       deu (German)            30.781                  2,570                   9,888,632       58,701          
00335.M2TS      4356 (0x1104)   0x81            AC3             nor (Norwegian)         30.781                  642                     2,470,400       14,475          
00335.M2TS      4357 (0x1105)   0x81            AC3             swe (Swedish)           30.781                  642                     2,470,400       14,475          
00335.M2TS      4358 (0x1106)   0x81            AC3             eng (English)           30.781                  193                     741,120         4,825           
00335.M2TS      4608 (0x1200)   0x90            PGS             eng (English)           30.781                  2                       8,407           52              
00335.M2TS      4609 (0x1201)   0x90            PGS             dan (Danish)            30.781                  3                       11,855          78              
00335.M2TS      4610 (0x1202)   0x90            PGS             fin (Finnish)           30.781                  4                       16,221          101             
00335.M2TS      4611 (0x1203)   0x90            PGS             deu (German)            30.781                  4                       14,346          90              
00335.M2TS      4612 (0x1204)   0x90            PGS             nor (Norwegian)         30.781                  4                       15,788          99              
00335.M2TS      4613 (0x1205)   0x90            PGS             swe (Swedish)           30.781                  3                       12,702          82              
00335.M2TS      4614 (0x1206)   0x90            PGS             tur (Turkish)           30.781                  3                       12,071          78              
00335.M2TS      4615 (0x1207)   0x90            PGS             eng (English)           30.781                  79                      304,056         1,722           
00335.M2TS      4616 (0x1208)   0x90            PGS             deu (German)            30.781                  72                      277,132         1,576           
00368.M2TS (1)  4113 (0x1011)   0x1B            AVC                                     30.781                  25,981                  99,965,793      543,731         
00368.M2TS (1)  4352 (0x1100)   0x86            DTS-HD MA       eng (English)           30.781                  2,649                   10,191,652      59,889          
00368.M2TS (1)  4353 (0x1101)   0x81            AC3             dan (Danish)            30.781                  642                     2,470,400       14,475          
00368.M2TS (1)  4354 (0x1102)   0x81            AC3             fin (Finnish)           30.781                  642                     2,470,400       14,475          
00368.M2TS (1)  4355 (0x1103)   0x86            DTS-HD MA       deu (German)            30.781                  2,570                   9,888,632       58,701          
00368.M2TS (1)  4356 (0x1104)   0x81            AC3             nor (Norwegian)         30.781                  642                     2,470,400       14,475          
00368.M2TS (1)  4357 (0x1105)   0x81            AC3             swe (Swedish)           30.781                  642                     2,470,400       14,475          
00368.M2TS (1)  4358 (0x1106)   0x81            AC3             eng (English)           30.781                  193                     741,120         4,825           
00368.M2TS (1)  4608 (0x1200)   0x90            PGS             eng (English)           30.781                  2                       8,407           52              
00368.M2TS (1)  4609 (0x1201)   0x90            PGS             dan (Danish)            30.781                  3                       11,855          78              
00368.M2TS (1)  4610 (0x1202)   0x90            PGS             fin (Finnish)           30.781                  4                       16,221          101             
00368.M2TS (1)  4611 (0x1203)   0x90            PGS             deu (German)            30.781                  4                       14,346          90              
00368.M2TS (1)  4612 (0x1204)   0x90            PGS             nor (Norwegian)         30.781                  4                       15,788          99              
00368.M2TS (1)  4613 (0x1205)   0x90            PGS             swe (Swedish)           30.781                  3                       12,702          82              
00368.M2TS (1)  4614 (0x1206)   0x90            PGS             tur (Turkish)           30.781                  3                       12,071          78              
00368.M2TS (1)  4615 (0x1207)   0x90            PGS             eng (English)           30.781                  79                      304,056         1,722           
00368.M2TS (1)  4616 (0x1208)   0x90            PGS             deu (German)            30.781                  72                      277,132         1,576           
00336.M2TS      4113 (0x1011)   0x1B            AVC                                     1524.732                25,820                  4,921,130,989   26,766,825      
00336.M2TS      4352 (0x1100)   0x86            DTS-HD MA       eng (English)           1524.732                2,443                   465,705,000     2,767,846       
00336.M2TS      4353 (0x1101)   0x81            AC3             dan (Danish)            1524.732                640                     121,989,120     714,780         
00336.M2TS      4354 (0x1102)   0x81            AC3             fin (Finnish)           1524.732                640                     121,989,120     714,780         
00336.M2TS      4355 (0x1103)   0x86            DTS-HD MA       deu (German)            1524.732                2,458                   468,437,248     2,784,862       
00336.M2TS      4356 (0x1104)   0x81            AC3             nor (Norwegian)         1524.732                640                     121,989,120     714,780         
00336.M2TS      4357 (0x1105)   0x81            AC3             swe (Swedish)           1524.732                640                     121,989,120     714,780         
00336.M2TS      4358 (0x1106)   0x81            AC3             eng (English)           1524.732                192                     36,596,736      238,260         
00336.M2TS      4608 (0x1200)   0x90            PGS             eng (English)           1524.732                36                      6,932,081       39,610          
00336.M2TS      4609 (0x1201)   0x90            PGS             dan (Danish)            1524.732                35                      6,698,406       38,338          
00336.M2TS      4610 (0x1202)   0x90            PGS             fin (Finnish)           1524.732                35                      6,707,637       38,391          
00336.M2TS      4611 (0x1203)   0x90            PGS             deu (German)            1524.732                40                      7,568,311       43,078          
00336.M2TS      4612 (0x1204)   0x90            PGS             nor (Norwegian)         1524.732                34                      6,526,534       37,334          
00336.M2TS      4613 (0x1205)   0x90            PGS             swe (Swedish)           1524.732                34                      6,421,029       36,505          
00336.M2TS      4614 (0x1206)   0x90            PGS             tur (Turkish)           1524.732                37                      7,141,341       40,743          
00336.M2TS      4615 (0x1207)   0x90            PGS             eng (English)           1524.732                73                      13,874,042      78,666          
00336.M2TS      4616 (0x1208)   0x90            PGS             deu (German)            1524.732                72                      13,809,324      78,282          
00337.M2TS      4113 (0x1011)   0x1B            AVC                                     488.655                 25,856                  1,579,307,195   8,590,076       
00337.M2TS      4352 (0x1100)   0x86            DTS-HD MA       eng (English)           488.655                 2,403                   146,760,132     873,617         
00337.M2TS      4353 (0x1101)   0x81            AC3             dan (Danish)            488.655                 640                     39,101,440      229,110         
00337.M2TS      4354 (0x1102)   0x81            AC3             fin (Finnish)           488.655                 640                     39,101,440      229,110         
00337.M2TS      4355 (0x1103)   0x86            DTS-HD MA       deu (German)            488.655                 2,431                   148,519,448     883,283         
00337.M2TS      4356 (0x1104)   0x81            AC3             nor (Norwegian)         488.655                 640                     39,101,440      229,110         
00337.M2TS      4357 (0x1105)   0x81            AC3             swe (Swedish)           488.655                 640                     39,101,440      229,110         
00337.M2TS      4358 (0x1106)   0x81            AC3             eng (English)           488.655                 192                     11,730,432      76,370          
00337.M2TS      4608 (0x1200)   0x90            PGS             eng (English)           488.655                 16                      962,420         5,397           
00337.M2TS      4609 (0x1201)   0x90            PGS             dan (Danish)            488.655                 17                      1,036,437       5,818           
00337.M2TS      4610 (0x1202)   0x90            PGS             fin (Finnish)           488.655                 16                      980,634         5,513           
00337.M2TS      4611 (0x1203)   0x90            PGS             deu (German)            488.655                 19                      1,137,294       6,376           
00337.M2TS      4612 (0x1204)   0x90            PGS             nor (Norwegian)         488.655                 16                      958,151         5,375           
00337.M2TS      4613 (0x1205)   0x90            PGS             swe (Swedish)           488.655                 15                      938,823         5,250           
00337.M2TS      4614 (0x1206)   0x90            PGS             tur (Turkish)           488.655                 19                      1,140,937       6,386           
00337.M2TS      4615 (0x1207)   0x90            PGS             eng (English)           488.655                 44                      2,675,605       15,165          
00337.M2TS      4616 (0x1208)   0x90            PGS             deu (German)            488.655                 45                      2,762,174       15,651          
00369.M2TS (1)  4113 (0x1011)   0x1B            AVC                                     488.655                 25,854                  1,579,216,148   8,589,598       
00369.M2TS (1)  4352 (0x1100)   0x86            DTS-HD MA       eng (English)           488.655                 2,403                   146,760,132     873,617         
00369.M2TS (1)  4353 (0x1101)   0x81            AC3             dan (Danish)            488.655                 640                     39,101,440      229,110         
00369.M2TS (1)  4354 (0x1102)   0x81            AC3             fin (Finnish)           488.655                 640                     39,101,440      229,110         
00369.M2TS (1)  4355 (0x1103)   0x86            DTS-HD MA       deu (German)            488.655                 2,431                   148,519,448     883,283         
00369.M2TS (1)  4356 (0x1104)   0x81            AC3             nor (Norwegian)         488.655                 640                     39,101,440      229,110         
00369.M2TS (1)  4357 (0x1105)   0x81            AC3             swe (Swedish)           488.655                 640                     39,101,440      229,110         
00369.M2TS (1)  4358 (0x1106)   0x81            AC3             eng (English)           488.655                 192                     11,730,432      76,370          
00369.M2TS (1)  4608 (0x1200)   0x90            PGS             eng (English)           488.655                 16                      962,420         5,397           
00369.M2TS (1)  4609 (0x1201)   0x90            PGS             dan (Danish)            488.655                 17                      1,036,437       5,818           
00369.M2TS (1)  4610 (0x1202)   0x90            PGS             fin (Finnish)           488.655                 16                      980,634         5,513           
00369.M2TS (1)  4611 (0x1203)   0x90            PGS             deu (German)            488.655                 19                      1,137,294       6,376           
00369.M2TS (1)  4612 (0x1204)   0x90            PGS             nor (Norwegian)         488.655                 16                      958,151         5,375           
00369.M2TS (1)  4613 (0x1205)   0x90            PGS             swe (Swedish)           488.655                 15                      938,823         5,250           
00369.M2TS (1)  4614 (0x1206)   0x90            PGS             tur (Turkish)           488.655                 19                      1,140,937       6,386           
00369.M2TS (1)  4615 (0x1207)   0x90            PGS             eng (English)           488.655                 44                      2,675,605       15,165          
00369.M2TS (1)  4616 (0x1208)   0x90            PGS             deu (German)            488.655                 45                      2,762,174       15,651          

[/code]
<---- END FORUMS PASTE ---->

QUICK SUMMARY:

Disc Title: Smurfs: The Lost Village – Blu-ray™
Disc Label: Smurfs.The.Lost.Village.2017.MULTi.COMPLETE.BLURAY-BD4U
Disc Size: 37,648,956,385 bytes
Protection: AACS
Playlist: 00372.MPLS
Size: 24,259,682,304 bytes
Length: 1:29:46.380
Total Bitrate: 36.03 Mbps
Video: MPEG-4 AVC Video / 25829 kbps / 1080p / 23.976 fps / 16:9 / High Profile 4.1
Video: MPEG-4 AVC Video (1) / 2499 (25823) kbps / 1080p / 23.976 fps / 16:9 / High Profile 4.1
Audio: English / DTS-HD Master Audio / 5.1 / 48 kHz /  2353 kbps / 16-bit (DTS Core: 5.1 / 48 kHz /  1509 kbps / 16-bit)
Audio: Danish / Dolby Digital Audio / 5.1 / 48 kHz /   640 kbps / DN -31dB
Audio: Finnish / Dolby Digital Audio / 5.1 / 48 kHz /   640 kbps / DN -31dB
Audio: German / DTS-HD Master Audio / 5.1 / 48 kHz /  2395 kbps / 16-bit (DTS Core: 5.1 / 48 kHz /  1509 kbps / 16-bit)
Audio: Norwegian / Dolby Digital Audio / 5.1 / 48 kHz /   640 kbps / DN -31dB
Audio: Swedish / Dolby Digital Audio / 5.1 / 48 kHz /   640 kbps / DN -31dB
Audio: English / Dolby Digital Audio / 2.0 / 48 kHz /   192 kbps / DN -31dB / Dolby Surround
Subtitle: English / 40.225 kbps
Subtitle: Danish / 38.413 kbps
Subtitle: Finnish / 38.394 kbps
Subtitle: German / 42.933 kbps
Subtitle: Norwegian / 37.934 kbps
Subtitle: Swedish / 36.768 kbps
Subtitle: Turkish / 41.655 kbps
Subtitle: English / 70.581 kbps
Subtitle: German / 69.677 kbps

